<svg id="Layer_1" data-name="Layer 1" xmlns="http://www.w3.org/2000/svg" viewBox="0 0 725.64 530.72"><defs><style>.cls-1{fill:#f5f6f6;}.cls-2{fill:#fdfdfd;}</style></defs><title>pattern-bg3</title><path class="cls-1" d="M723.36-258.79a7,7,0,0,0,1,1.76q26.07,26.13,52.18,52.21c1.91,1.91,1.91,1.91,0,3.86l-51.76,51.75c-1.94,1.94-1.95,1.94-3.86,0q-26.1-26.1-52.21-52.17a6.93,6.93,0,0,0-1.77-1C685.93-221.36,704.38-239.8,723.36-258.79Zm-31.91,56.06c.31.33.71.79,1.14,1.23,9.5,9.5,19,19,28.47,28.53,1.46,1.48,2.27,1.28,3.62-.08q14-14.12,28.07-28.06c1.44-1.42,1.38-2.23,0-3.62-9.55-9.44-19-19-28.53-28.46-.42-.43-.89-.81-1.19-1.08Z" transform="translate(-52.36 564.27)"/><path class="cls-1" d="M687.46-514.95A34.49,34.49,0,0,1,652-482a34.38,34.38,0,0,1-33.93-35.73,34.33,34.33,0,0,1,34.7-33.86A34.48,34.48,0,0,1,687.46-514.95Zm-34.73-19.67a17.75,17.75,0,0,0-17.41,20.23,17.93,17.93,0,0,0,17.88,15.25A17.77,17.77,0,0,0,670.66-517,17.7,17.7,0,0,0,652.73-534.62Z" transform="translate(-52.36 564.27)"/><path class="cls-1" d="M380.65-78.42A34.69,34.69,0,0,1,349-43.85C326.34-42.11,312.45-60,311.34-75.3,309.69-98,327.6-111.89,343-113A34.82,34.82,0,0,1,380.65-78.42ZM345.71-96.13a17.79,17.79,0,0,0-17.4,20.26,18,18,0,0,0,19.35,15.13,18.08,18.08,0,0,0,15.92-19.45C362.87-88.76,354.62-96.46,345.71-96.13Z" transform="translate(-52.36 564.27)"/><path class="cls-1" d="M104.46-511.71c-14,.26-26.56-11.95-26.09-27.12.41-13.5,11.77-25.82,26.75-25.43a26.2,26.2,0,0,1,25.82,26.81A26.18,26.18,0,0,1,104.46-511.71Z" transform="translate(-52.36 564.27)"/><path class="cls-1" d="M319.64-256.71c-.32-14.23,11.78-26.48,26.5-26.28a26.38,26.38,0,0,1,26,26.65,26.28,26.28,0,0,1-27.53,25.93C331.38-230.81,319.35-242.22,319.64-256.71Z" transform="translate(-52.36 564.27)"/><path class="cls-1" d="M52.36-185.62c-.29-14.16,11.77-26.54,26.56-26.19a26.25,26.25,0,0,1,26,26.68,26.28,26.28,0,0,1-27.59,25.87C64.09-159.68,52-171.07,52.36-185.62Z" transform="translate(-52.36 564.27)"/><path class="cls-1" d="M419.85-371.13v-56.54l43.36,28.27Z" transform="translate(-52.36 564.27)"/><path class="cls-1" d="M562.24-149.64l43.3,28.22-43.3,28.25Z" transform="translate(-52.36 564.27)"/><path class="cls-1" d="M641.74-343.72l22.1,22.09-22.09,22.1-22.11-22.1Z" transform="translate(-52.36 564.27)"/><path class="cls-1" d="M544.26-230.21l-22.09,22.07L500.09-230.2l22.07-22.09Z" transform="translate(-52.36 564.27)"/><path class="cls-1" d="M302.81-490.74l24.6,37.65H278.2Z" transform="translate(-52.36 564.27)"/><path class="cls-1" d="M147.49-33.55H98.33l24.58-37.61Z" transform="translate(-52.36 564.27)"/><path class="cls-2" d="M114-340.24c0-12.4,0-24.81,0-37.21,0-1.78.4-2.35,2.28-2.35q37.32.1,74.64,0c1.75,0,2.18.53,2.18,2.22q-.07,37.32,0,74.63c0,1.68-.4,2.24-2.17,2.24q-37.43-.09-74.85,0c-1.67,0-2.08-.51-2.07-2.11C114-315.29,114-327.77,114-340.24Zm39.41,39.09c12.34,0,24.68,0,37,0,1.68,0,2.23-.42,2.23-2.17q-.07-37,0-74c0-1.68-.53-2.07-2.12-2.07q-37,.06-74,0c-1.58,0-2.13.38-2.12,2.06q.08,37,0,74c0,1.75.54,2.18,2.22,2.17C128.88-301.18,141.15-301.15,153.42-301.15Z" transform="translate(-52.36 564.27)"/><path class="cls-1" d="M153.42-301.15c-12.27,0-24.54,0-36.81,0-1.68,0-2.23-.42-2.22-2.17q.08-37,0-74c0-1.68.54-2.06,2.12-2.06q37,.06,74,0c1.59,0,2.12.39,2.12,2.07q-.07,37,0,74c0,1.75-.55,2.18-2.23,2.17C178.1-301.18,165.76-301.15,153.42-301.15Zm22.65-39.11c0-6.61-.07-13.22,0-19.84,0-2-.5-2.75-2.65-2.74q-19.94.13-39.89,0c-1.94,0-2.65.49-2.64,2.54q.13,20.06,0,40.1c0,1.85.47,2.54,2.44,2.53q20.15-.12,40.31,0c2,0,2.44-.72,2.42-2.55C176-326.89,176.07-333.57,176.07-340.26Z" transform="translate(-52.36 564.27)"/></svg>