<svg id="Layer_1" data-name="Layer 1" xmlns="http://www.w3.org/2000/svg" viewBox="0 0 800.51 412.35"><defs><style>.cls-1{fill:#050505;}.cls-2{fill:#8f8f8f;}.cls-3{fill:#919191;}.cls-4{fill:#939393;}.cls-5{fill:#929292;}.cls-6{fill:#909090;}.cls-7{fill:#090909;}.cls-8{fill:#0d0d0d;}.cls-9{fill:#0a0a0a;}.cls-10{fill:#212121;}.cls-11{fill:#060606;}.cls-12{fill:#232323;}.cls-13{fill:#0e0e0e;}.cls-14{fill:#1e1e1e;}.cls-15{fill:#111;}.cls-16{fill:#1b1b1b;}.cls-17{fill:#262626;}.cls-18{fill:#1c1c1c;}.cls-19{fill:#2a2a2a;}.cls-20{fill:#292929;}.cls-21{fill:#171717;}.cls-22{fill:#121212;}.cls-23{fill:#181818;}.cls-24{fill:#222;}.cls-25{fill:#131313;}.cls-26{fill:#272727;}.cls-27{fill:#1f1f1f;}.cls-28{fill:#161616;}.cls-29{fill:#141414;}.cls-30{fill:#191919;}.cls-31{fill:#101010;}.cls-32{fill:#202020;}.cls-33{fill:#1d1d1d;}.cls-34{fill:#151515;}.cls-35{fill:#1a1a1a;}.cls-36{fill:#070707;}.cls-37{fill:#2c2c2c;}.cls-38{fill:#0c0c0c;}.cls-39{fill:#0b0b0b;}.cls-40{fill:#242424;}.cls-41{fill:#2b2b2b;}.cls-42{fill:#2f2f2f;}.cls-43{fill:#282828;}.cls-44{fill:#303030;}.cls-45{fill:#0f0f0f;}.cls-46{fill:#3e3e3e;}.cls-47{fill:#252525;}.cls-48{fill:#383838;}.cls-49{fill:#313131;}.cls-50{fill:#3c3c3c;}.cls-51{fill:#2d2d2d;}.cls-52{fill:#343434;}</style></defs><title>pattern-bg</title><path class="cls-1" d="M.42,360.12l16.3,9.06L.42,378.45Z" transform="translate(-0.42 -130.28)"/><path class="cls-1" d="M.42,403l15.93,9.05L.42,421.34Z" transform="translate(-0.42 -130.28)"/><path class="cls-2" d="M799.52,401.64l.9-.29V423l-.86-.39a6.43,6.43,0,0,0,.42-1.54q0-8.85,0-17.69A7.68,7.68,0,0,0,799.52,401.64Z" transform="translate(-0.42 -130.28)"/><path class="cls-3" d="M799.56,359.25l.86-.37V379.7l-.42-.42c0-5.89,0-11.77,0-17.66A14,14,0,0,0,799.56,359.25Z" transform="translate(-0.42 -130.28)"/><path class="cls-4" d="M800.42,250.18l-.87-.36a5.83,5.83,0,0,0,.42-1.53c0-5.73,0-11.45,0-17.17l.49-.09Z" transform="translate(-0.42 -130.28)"/><path class="cls-4" d="M799.55,274.7l.87-.36v18.32l-.83-.43q.06-8.69.1-17.38C799.69,274.8,799.6,274.75,799.55,274.7Z" transform="translate(-0.42 -130.28)"/><path class="cls-5" d="M799.58,318.06l.84-.41v17.49l-.42-.46c0-4.75,0-9.51,0-14.26A13.86,13.86,0,0,0,799.58,318.06Z" transform="translate(-0.42 -130.28)"/><path class="cls-6" d="M800.42,463l-.82-.43a5.62,5.62,0,0,0,.38-1.34q0-6.09,0-12.18a5.86,5.86,0,0,0-.43-1.53l.88-.35Z" transform="translate(-0.42 -130.28)"/><path class="cls-4" d="M800.42,205.62l-.85-.4a4.88,4.88,0,0,0,.4-1.34c0-4.07,0-8.15,0-12.22a5.84,5.84,0,0,0-.44-1.54l.89-.32Z" transform="translate(-0.42 -130.28)"/><path class="cls-7" d="M105.31,329.33l31.95,18.44-31.95,18.44Z" transform="translate(-0.42 -130.28)"/><path class="cls-7" d="M106.93,369.22l31.74-18.32v36.63Z" transform="translate(-0.42 -130.28)"/><path class="cls-8" d="M138.42,344.08l-30.76-17.75,30.76-17.76Z" transform="translate(-0.42 -130.28)"/><path class="cls-8" d="M142.79,344.23V308.44l31,17.88Z" transform="translate(-0.42 -130.28)"/><path class="cls-7" d="M101.26,372.88v35.56L70.45,390.67Z" transform="translate(-0.42 -130.28)"/><path class="cls-7" d="M105.82,408.26V373.07l30.48,17.59Z" transform="translate(-0.42 -130.28)"/><path class="cls-9" d="M143.06,351.89l30,17.32-30,17.35Z" transform="translate(-0.42 -130.28)"/><path class="cls-8" d="M175.27,330.43v34.68l-30-17.33Z" transform="translate(-0.42 -130.28)"/><path class="cls-7" d="M71.43,347.78l29.3-16.92v33.81Z" transform="translate(-0.42 -130.28)"/><path class="cls-7" d="M98.4,369.21,69.12,386.12V352.33Z" transform="translate(-0.42 -130.28)"/><path class="cls-10" d="M729.15,347.77l-28.34,16.36V331.42Z" transform="translate(-0.42 -130.28)"/><path class="cls-11" d="M69.46,428.32V395.91L97.52,412.1Z" transform="translate(-0.42 -130.28)"/><path class="cls-10" d="M694.58,331.72v32.11l-27.81-16.06Z" transform="translate(-0.42 -130.28)"/><path class="cls-8" d="M146.73,304.88l27.79-16v32.08Z" transform="translate(-0.42 -130.28)"/><path class="cls-10" d="M704.12,369.22c9.36-5.41,18.34-10.58,27.52-15.87V385.1Z" transform="translate(-0.42 -130.28)"/><path class="cls-10" d="M691.29,326.32,664.08,342V310.63Z" transform="translate(-0.42 -130.28)"/><path class="cls-10" d="M738.57,353.88l26.57,15.33-26.57,15.35Z" transform="translate(-0.42 -130.28)"/><path class="cls-12" d="M731.23,341.55l-26.37-15.23,26.37-15.21Z" transform="translate(-0.42 -130.28)"/><path class="cls-8" d="M133.33,304.88l-26.09,15.05v-30.1Z" transform="translate(-0.42 -130.28)"/><path class="cls-7" d="M110.82,412.11l25.93-15v29.93Z" transform="translate(-0.42 -130.28)"/><path class="cls-8" d="M181.68,332.84l25.86,14.94-25.86,14.93Z" transform="translate(-0.42 -130.28)"/><path class="cls-10" d="M630.82,326.33l25.91-14.95v29.89Z" transform="translate(-0.42 -130.28)"/><path class="cls-10" d="M768.21,405.53l-25.74-14.86,25.74-14.87Z" transform="translate(-0.42 -130.28)"/><path class="cls-13" d="M181.77,290.2l25.44,14.68-25.44,14.68Z" transform="translate(-0.42 -130.28)"/><path class="cls-1" d="M36.9,412.11l25.45-14.69V426.8Z" transform="translate(-0.42 -130.28)"/><path class="cls-11" d="M62.36,354.56v29.31L37,369.22Z" transform="translate(-0.42 -130.28)"/><path class="cls-8" d="M148.46,390.66l25.26-14.57v29.15Z" transform="translate(-0.42 -130.28)"/><path class="cls-14" d="M690,369.21l-25.34,14.63V354.61Z" transform="translate(-0.42 -130.28)"/><path class="cls-10" d="M693.72,290.36v29l-25.16-14.51Z" transform="translate(-0.42 -130.28)"/><path class="cls-14" d="M701.91,405.07V376.26l25,14.4Z" transform="translate(-0.42 -130.28)"/><path class="cls-14" d="M627.61,362.26v-29l25.07,14.47Z" transform="translate(-0.42 -130.28)"/><path class="cls-1" d="M58.32,390.66,33.42,405V376.3Z" transform="translate(-0.42 -130.28)"/><path class="cls-12" d="M702.14,290.66l24.64,14.22-24.64,14.24Z" transform="translate(-0.42 -130.28)"/><path class="cls-10" d="M800.92,390.66l-24.47,14.15V376.52Z" transform="translate(-0.42 -130.28)"/><path class="cls-13" d="M210.45,340.28l-24.18-13.95,24.18-14Z" transform="translate(-0.42 -130.28)"/><path class="cls-13" d="M169.29,283.43l-24.23,14v-28Z" transform="translate(-0.42 -130.28)"/><path class="cls-14" d="M656.26,355.21v28l-24.28-14Z" transform="translate(-0.42 -130.28)"/><path class="cls-1" d="M99,447.38,75,433.56l24-13.83Z" transform="translate(-0.42 -130.28)"/><path class="cls-12" d="M767.48,334.1v27.32l-23.66-13.64Z" transform="translate(-0.42 -130.28)"/><path class="cls-12" d="M739.55,339.94V312.73l23.58,13.59Z" transform="translate(-0.42 -130.28)"/><path class="cls-10" d="M739.62,425.63v-27L763,412.11Z" transform="translate(-0.42 -130.28)"/><path class="cls-7" d="M145.35,425.59V398.65l23.33,13.45Z" transform="translate(-0.42 -130.28)"/><path class="cls-10" d="M628.34,318.09V291.68l22.87,13.2Z" transform="translate(-0.42 -130.28)"/><path class="cls-7" d="M71.15,339.61V313l23,13.28Z" transform="translate(-0.42 -130.28)"/><path class="cls-8" d="M135.71,296.58l-22.78-13.15,22.78-13.14Z" transform="translate(-0.42 -130.28)"/><path class="cls-14" d="M692.93,377.51v26.3l-22.79-13.14Z" transform="translate(-0.42 -130.28)"/><path class="cls-7" d="M108.39,446.63V420.5L131,433.55Z" transform="translate(-0.42 -130.28)"/><path class="cls-14" d="M596.21,347.78,618.36,335v25.57Z" transform="translate(-0.42 -130.28)"/><path class="cls-14" d="M729.62,424.63,708,412.11l21.67-12.52Z" transform="translate(-0.42 -130.28)"/><path class="cls-8" d="M76.69,304.88l21.5-12.4v24.8Z" transform="translate(-0.42 -130.28)"/><path class="cls-10" d="M687.39,283.43l-21.32,12.32V271.13Z" transform="translate(-0.42 -130.28)"/><path class="cls-15" d="M188.13,283.43l21.34-12.3v24.61Z" transform="translate(-0.42 -130.28)"/><path class="cls-8" d="M188.18,369.22l21.34-12.32v24.64Z" transform="translate(-0.42 -130.28)"/><path class="cls-10" d="M634.35,283.43l20.77-12v24Z" transform="translate(-0.42 -130.28)"/><path class="cls-1" d="M23.8,378.37v24.57L2.52,390.67Z" transform="translate(-0.42 -130.28)"/><path class="cls-14" d="M629,402.7V378.64l20.84,12Z" transform="translate(-0.42 -130.28)"/><path class="cls-12" d="M729.41,295.43l-20.79-12,20.79-12Z" transform="translate(-0.42 -130.28)"/><path class="cls-8" d="M183.31,402.68v-24l20.81,12Z" transform="translate(-0.42 -130.28)"/><path class="cls-10" d="M777.7,421.61l20.68,11.94-20.68,12Z" transform="translate(-0.42 -130.28)"/><path class="cls-16" d="M592,357.33l20.59,11.89L592,381.11Z" transform="translate(-0.42 -130.28)"/><path class="cls-12" d="M798.31,347.77l-20.57,11.87V335.9Z" transform="translate(-0.42 -130.28)"/><path class="cls-17" d="M766.33,293.23v23.3l-20.2-11.65Z" transform="translate(-0.42 -130.28)"/><path class="cls-14" d="M612.24,326.33l-20.11,11.6V314.72Z" transform="translate(-0.42 -130.28)"/><path class="cls-15" d="M220.76,314.76l20.05,11.56L220.76,337.9Z" transform="translate(-0.42 -130.28)"/><path class="cls-1" d="M35,445.13V422l20,11.56Z" transform="translate(-0.42 -130.28)"/><path class="cls-15" d="M171.82,273.39,152.07,262l19.75-11.43Z" transform="translate(-0.42 -130.28)"/><path class="cls-10" d="M746.33,433.56l19.82-11.44V445Z" transform="translate(-0.42 -130.28)"/><path class="cls-14" d="M617.7,293.33v23.09l-20-11.53Z" transform="translate(-0.42 -130.28)"/><path class="cls-17" d="M740.9,294.79v-22.7l19.67,11.34Z" transform="translate(-0.42 -130.28)"/><path class="cls-7" d="M35.1,336.43l19.65,11.35L35.1,359.11Z" transform="translate(-0.42 -130.28)"/><path class="cls-16" d="M617.55,379.31V402l-19.66-11.33Z" transform="translate(-0.42 -130.28)"/><path class="cls-15" d="M203.13,262l-19.36,11.18V250.82C190.27,254.56,196.57,258.2,203.13,262Z" transform="translate(-0.42 -130.28)"/><path class="cls-16" d="M580.18,358.32v21.79L561.3,369.22Z" transform="translate(-0.42 -130.28)"/><path class="cls-17" d="M797.08,262l-18.61,10.74V251.25Z" transform="translate(-0.42 -130.28)"/><path class="cls-10" d="M799.52,401.64a7.68,7.68,0,0,1,.46,1.75q0,8.83,0,17.69a6.43,6.43,0,0,1-.42,1.54l-18.21-10.51Z" transform="translate(-0.42 -130.28)"/><path class="cls-15" d="M221.33,273l18.1,10.45-18.1,10.44Z" transform="translate(-0.42 -130.28)"/><path class="cls-17" d="M796.52,304.88l-18,10.37V294.52Z" transform="translate(-0.42 -130.28)"/><path class="cls-16" d="M573.77,347.77,555.7,358.21V337.35Z" transform="translate(-0.42 -130.28)"/><path class="cls-15" d="M245.57,358.17l-18-10.39,18-10.41Z" transform="translate(-0.42 -130.28)"/><path class="cls-14" d="M562,326.33,579.87,316v20.64Z" transform="translate(-0.42 -130.28)"/><path class="cls-15" d="M227.55,304.88l18-10.37v20.73Z" transform="translate(-0.42 -130.28)"/><path class="cls-1" d="M90.83,455l-18,10.38V444.63Z" transform="translate(-0.42 -130.28)"/><path class="cls-7" d="M59.75,336.49,42.17,326.32l17.58-10.14Z" transform="translate(-0.42 -130.28)"/><path class="cls-12" d="M799.56,359.25a14,14,0,0,1,.42,2.37c0,5.89,0,11.77,0,17.66l-17.82-10Z" transform="translate(-0.42 -130.28)"/><path class="cls-13" d="M221.47,379.5V359l17.81,10.25C233.29,372.67,227.54,376,221.47,379.5Z" transform="translate(-0.42 -130.28)"/><path class="cls-14" d="M667.33,422.09v-20l17.29,10Z" transform="translate(-0.42 -130.28)"/><path class="cls-18" d="M636.8,412.11l17-9.84V422Z" transform="translate(-0.42 -130.28)"/><path class="cls-17" d="M765.36,272l-17.31-10,17.31-10Z" transform="translate(-0.42 -130.28)"/><path class="cls-7" d="M171,443.5l-17.23-9.94L171,423.62Z" transform="translate(-0.42 -130.28)"/><path class="cls-16" d="M573.23,390.67,556,400.59V380.75Z" transform="translate(-0.42 -130.28)"/><path class="cls-10" d="M593.17,293.24V273.67l17,9.75Z" transform="translate(-0.42 -130.28)"/><path class="cls-16" d="M393.82,209.4v19.37L377,219.11Z" transform="translate(-0.42 -130.28)"/><path class="cls-16" d="M593.21,402.46l16.73,9.64-16.73,9.67Z" transform="translate(-0.42 -130.28)"/><path class="cls-19" d="M795.46,219.1l-16.31,9.42V209.69Z" transform="translate(-0.42 -130.28)"/><path class="cls-17" d="M704.72,271.57V252.42l16.6,9.57Z" transform="translate(-0.42 -130.28)"/><path class="cls-20" d="M799.93,231.12c0,5.72.05,11.44,0,17.17a5.83,5.83,0,0,1-.42,1.53l-16.13-9.3Z" transform="translate(-0.42 -130.28)"/><path class="cls-12" d="M674.37,262l16.34-9.43V271.4Z" transform="translate(-0.42 -130.28)"/><path class="cls-21" d="M386.9,240.54,370.61,250V231.14Z" transform="translate(-0.42 -130.28)"/><path class="cls-10" d="M630.71,271.16V252.83L646.59,262Z" transform="translate(-0.42 -130.28)"/><path class="cls-16" d="M542.06,357l-16-9.2,16-9.23Z" transform="translate(-0.42 -130.28)"/><path class="cls-7" d="M133.51,445.83v18.33L117.62,455Z" transform="translate(-0.42 -130.28)"/><path class="cls-1" d="M6,433.56,22,424.29v18.52Z" transform="translate(-0.42 -130.28)"/><path class="cls-16" d="M423.83,219.09l-16,9.25V209.86Z" transform="translate(-0.42 -130.28)"/><path class="cls-16" d="M563.19,412.11l16-9.23v18.46Z" transform="translate(-0.42 -130.28)"/><path class="cls-14" d="M556.44,314.07V295.69l15.93,9.2Z" transform="translate(-0.42 -130.28)"/><path class="cls-1" d="M43.1,455l16.08-9.28v18.57C53.74,461.14,48.57,458.15,43.1,455Z" transform="translate(-0.42 -130.28)"/><path class="cls-15" d="M275.08,304.88,259.26,314V295.78Z" transform="translate(-0.42 -130.28)"/><path class="cls-11" d="M6.13,347.78l15.81-9.13v18.23Z" transform="translate(-0.42 -130.28)"/><path class="cls-8" d="M192,412.11l15.68-9.05v18.09Z" transform="translate(-0.42 -130.28)"/><path class="cls-14" d="M563.44,283.44l15.71-9.06v18.1Z" transform="translate(-0.42 -130.28)"/><path class="cls-22" d="M259.39,338.82l15.52,8.95-15.52,9Z" transform="translate(-0.42 -130.28)"/><path class="cls-16" d="M370.72,206.66v-18l15.58,9Z" transform="translate(-0.42 -130.28)"/><path class="cls-17" d="M799.55,274.7c.05.05.14.1.14.15q0,8.68-.1,17.38l-15.18-8.8Z" transform="translate(-0.42 -130.28)"/><path class="cls-8" d="M110.82,271V253l15.57,9Z" transform="translate(-0.42 -130.28)"/><path class="cls-16" d="M430.51,231.59v17.9l-15.51-9Z" transform="translate(-0.42 -130.28)"/><path class="cls-14" d="M705.25,424.73l15.26,8.82-15.26,8.83Z" transform="translate(-0.42 -130.28)"/><path class="cls-15" d="M281.8,335.14l-15.27-8.81,15.27-8.83Z" transform="translate(-0.42 -130.28)"/><path class="cls-13" d="M244.68,399.44l-15.21-8.77,15.21-8.79Z" transform="translate(-0.42 -130.28)"/><path class="cls-23" d="M534.67,369.21,519.52,378V360.49Z" transform="translate(-0.42 -130.28)"/><path class="cls-21" d="M333.81,210.38l15.12,8.71-15.12,8.75Z" transform="translate(-0.42 -130.28)"/><path class="cls-21" d="M356.09,249.4l-15.35-8.85,15.35-8.87Z" transform="translate(-0.42 -130.28)"/><path class="cls-23" d="M526.53,390.67l15.27-8.81v17.6Z" transform="translate(-0.42 -130.28)"/><path class="cls-24" d="M616,253.43v17.11L601.19,262C606.18,259.12,610.93,256.37,616,253.43Z" transform="translate(-0.42 -130.28)"/><path class="cls-21" d="M393.21,253.26v17.45L378.09,262Z" transform="translate(-0.42 -130.28)"/><path class="cls-23" d="M408.2,253.42,423,262l-14.83,8.56Z" transform="translate(-0.42 -130.28)"/><path class="cls-23" d="M341.21,197.65,356,189.16v17Z" transform="translate(-0.42 -130.28)"/><path class="cls-25" d="M229.63,262l14.87-8.57v17.13Z" transform="translate(-0.42 -130.28)"/><path class="cls-17" d="M799.58,318.06a13.86,13.86,0,0,1,.4,2.36c0,4.75,0,9.51,0,14.26l-14.78-8.31Z" transform="translate(-0.42 -130.28)"/><path class="cls-15" d="M192.66,240.54l14.65-8.45V249Z" transform="translate(-0.42 -130.28)"/><path class="cls-18" d="M541.61,296.53v16.69l-14.48-8.33Z" transform="translate(-0.42 -130.28)"/><path class="cls-22" d="M355.9,403.74v16.72l-14.48-8.34Z" transform="translate(-0.42 -130.28)"/><path class="cls-15" d="M371.15,420.5V403.74l14.49,8.36Z" transform="translate(-0.42 -130.28)"/><path class="cls-15" d="M334.1,425.32l14.26,8.23L334.1,441.8Z" transform="translate(-0.42 -130.28)"/><path class="cls-15" d="M162.61,240.54l-14.19,8.19V232.36Z" transform="translate(-0.42 -130.28)"/><path class="cls-9" d="M199.72,433.55l-14.19,8.18V425.38Z" transform="translate(-0.42 -130.28)"/><path class="cls-16" d="M534.05,326.32l-14.14,8.17V318.18Z" transform="translate(-0.42 -130.28)"/><path class="cls-22" d="M297,318.1l14.26,8.22L297,334.56Z" transform="translate(-0.42 -130.28)"/><path class="cls-15" d="M348.31,390.67l-14.18,8.17V382.49Z" transform="translate(-0.42 -130.28)"/><path class="cls-21" d="M348.24,262l-14.14,8.16V253.84Z" transform="translate(-0.42 -130.28)"/><path class="cls-22" d="M281.47,275.25v16.36l-14.18-8.17Z" transform="translate(-0.42 -130.28)"/><path class="cls-15" d="M267.43,369.22l13.93-8v16.07Z" transform="translate(-0.42 -130.28)"/><path class="cls-9" d="M148.38,463.05V447l13.94,8Z" transform="translate(-0.42 -130.28)"/><path class="cls-18" d="M429.84,189.8v15.71c-4.62-2.67-8.95-5.17-13.62-7.85Z" transform="translate(-0.42 -130.28)"/><path class="cls-26" d="M742.91,232.64l13.7,7.9-13.7,7.92Z" transform="translate(-0.42 -130.28)"/><path class="cls-16" d="M445.67,232.51l13.9,8-13.9,8Z" transform="translate(-0.42 -130.28)"/><path class="cls-18" d="M453.35,262,467,254.11v15.74Z" transform="translate(-0.42 -130.28)"/><path class="cls-21" d="M334.35,297.08l13.52,7.8-13.52,7.81Z" transform="translate(-0.42 -130.28)"/><path class="cls-27" d="M520.08,275.63l13.52,7.8-13.52,7.81Z" transform="translate(-0.42 -130.28)"/><path class="cls-21" d="M504.15,377.16l-13.73-8,13.73-7.92Z" transform="translate(-0.42 -130.28)"/><path class="cls-13" d="M222.75,404.06l14,8.05-14,8.06Z" transform="translate(-0.42 -130.28)"/><path class="cls-25" d="M304.72,304.88,318.47,297V312.8Z" transform="translate(-0.42 -130.28)"/><path class="cls-15" d="M304.76,390.67l13.63-7.87v15.71Z" transform="translate(-0.42 -130.28)"/><path class="cls-21" d="M304.81,262l13.67-7.86v15.73Z" transform="translate(-0.42 -130.28)"/><path class="cls-21" d="M318.5,211.18V227l-13.71-7.89Z" transform="translate(-0.42 -130.28)"/><path class="cls-22" d="M392.79,382.67v16l-13.86-8Z" transform="translate(-0.42 -130.28)"/><path class="cls-8" d="M74.17,291.35v-15.8l13.7,7.87Z" transform="translate(-0.42 -130.28)"/><path class="cls-21" d="M342,283.43l13.57-7.82v15.65Z" transform="translate(-0.42 -130.28)"/><path class="cls-28" d="M355.59,318.47v15.7L342,326.34Z" transform="translate(-0.42 -130.28)"/><path class="cls-15" d="M304.84,347.78l13.59-7.85v15.69Z" transform="translate(-0.42 -130.28)"/><path class="cls-29" d="M297.2,275.68l13.44,7.75L297.2,291.2Z" transform="translate(-0.42 -130.28)"/><path class="cls-22" d="M297.07,377.06V361.4l13.58,7.81Z" transform="translate(-0.42 -130.28)"/><path class="cls-22" d="M260.05,254.18l13.53,7.8-13.53,7.84Z" transform="translate(-0.42 -130.28)"/><path class="cls-13" d="M273.58,390.66,260,398.5V382.84Z" transform="translate(-0.42 -130.28)"/><path class="cls-30" d="M482.8,355.61V340l13.58,7.8Z" transform="translate(-0.42 -130.28)"/><path class="cls-18" d="M490.7,326.32l13.45-7.74v15.48Z" transform="translate(-0.42 -130.28)"/><path class="cls-15" d="M379,433.56l13.73-7.93v15.84Z" transform="translate(-0.42 -130.28)"/><path class="cls-23" d="M297.28,232.89l13.26,7.64-13.26,7.68Z" transform="translate(-0.42 -130.28)"/><path class="cls-18" d="M504.14,291.2l-13.42-7.77,13.42-7.75Z" transform="translate(-0.42 -130.28)"/><path class="cls-21" d="M570.89,433.55l-13.71,7.91V425.65Z" transform="translate(-0.42 -130.28)"/><path class="cls-22" d="M222.86,232.71l13.57,7.82-13.57,7.86Z" transform="translate(-0.42 -130.28)"/><path class="cls-15" d="M342.07,455l13.47-7.77v15.53Z" transform="translate(-0.42 -130.28)"/><path class="cls-18" d="M483,312.51V297.26l13.24,7.62Z" transform="translate(-0.42 -130.28)"/><path class="cls-21" d="M371.44,291.32V275.57l13.66,7.85Z" transform="translate(-0.42 -130.28)"/><path class="cls-22" d="M297.34,404.53l13.15,7.57-13.15,7.62Z" transform="translate(-0.42 -130.28)"/><path class="cls-18" d="M445.78,291.15V275.74l13.37,7.69Z" transform="translate(-0.42 -130.28)"/><path class="cls-18" d="M483,269.58V254.4L496.18,262Z" transform="translate(-0.42 -130.28)"/><path class="cls-13" d="M318.41,425.81v15.46L305,433.57Z" transform="translate(-0.42 -130.28)"/><path class="cls-20" d="M799.53,190.12a5.84,5.84,0,0,1,.44,1.54c0,4.07,0,8.15,0,12.22a4.88,4.88,0,0,1-.4,1.34l-13.14-7.57Z" transform="translate(-0.42 -130.28)"/><path class="cls-21" d="M392.62,297.16v15.41l-13.35-7.67Z" transform="translate(-0.42 -130.28)"/><path class="cls-10" d="M799.54,447.51A5.86,5.86,0,0,1,800,449q.06,6.09,0,12.18a5.62,5.62,0,0,1-.38,1.34L786.54,455Z" transform="translate(-0.42 -130.28)"/><path class="cls-23" d="M416.32,283.43l13.5-7.78v15.56Z" transform="translate(-0.42 -130.28)"/><path class="cls-22" d="M355.51,361.54v15.35l-13.31-7.67Z" transform="translate(-0.42 -130.28)"/><path class="cls-14" d="M756.37,455,743,462.7V447.31Z" transform="translate(-0.42 -130.28)"/><path class="cls-29" d="M408.7,383,422,390.66l-13.25,7.66Z" transform="translate(-0.42 -130.28)"/><path class="cls-16" d="M615.49,425.83v15.43l-13.37-7.7Z" transform="translate(-0.42 -130.28)"/><path class="cls-25" d="M347.77,347.78l-13.42,7.72V340Z" transform="translate(-0.42 -130.28)"/><path class="cls-14" d="M557.28,269.66V254.33L570.57,262Z" transform="translate(-0.42 -130.28)"/><path class="cls-21" d="M371.57,333.94V318.72l13.18,7.6Z" transform="translate(-0.42 -130.28)"/><path class="cls-15" d="M371.66,447.43,384.79,455l-13.13,7.61Z" transform="translate(-0.42 -130.28)"/><path class="cls-25" d="M371.55,376.84V361.63l13.19,7.58Z" transform="translate(-0.42 -130.28)"/><path class="cls-23" d="M421.78,304.88l-13,7.49V297.42Z" transform="translate(-0.42 -130.28)"/><path class="cls-21" d="M533.31,412.1l-13.06,7.55V404.58Z" transform="translate(-0.42 -130.28)"/><path class="cls-21" d="M429.59,376.65l-12.85-7.43,12.85-7.43Z" transform="translate(-0.42 -130.28)"/><path class="cls-25" d="M429.57,419.57l-12.9-7.46,12.9-7.45Z" transform="translate(-0.42 -130.28)"/><path class="cls-18" d="M392.34,183.51l-12.65-7.3,12.65-7.31Z" transform="translate(-0.42 -130.28)"/><path class="cls-16" d="M466.8,297.38v15l-13-7.48Z" transform="translate(-0.42 -130.28)"/><path class="cls-23" d="M392.31,355l-12.56-7.24,12.56-7.26Z" transform="translate(-0.42 -130.28)"/><path class="cls-14" d="M689.6,426.13V441l-12.88-7.42Z" transform="translate(-0.42 -130.28)"/><path class="cls-21" d="M466.68,398,454,390.66l12.67-7.32Z" transform="translate(-0.42 -130.28)"/><path class="cls-21" d="M453.93,347.78l12.74-7.37v14.71Z" transform="translate(-0.42 -130.28)"/><path class="cls-14" d="M466.73,211.78v14.64l-12.67-7.31Z" transform="translate(-0.42 -130.28)"/><path class="cls-8" d="M280.9,419.39l-12.58-7.28,12.58-7.27Z" transform="translate(-0.42 -130.28)"/><path class="cls-18" d="M347.14,176.21l-12.56,7.22V169Z" transform="translate(-0.42 -130.28)"/><path class="cls-21" d="M483.2,398V383.37l12.65,7.3Z" transform="translate(-0.42 -130.28)"/><path class="cls-21" d="M268.39,240.54l12.5-7.19v14.41C276.7,245.33,272.72,243,268.39,240.54Z" transform="translate(-0.42 -130.28)"/><path class="cls-21" d="M458.72,369.21l-12.59,7.27V362Z" transform="translate(-0.42 -130.28)"/><path class="cls-16" d="M644.43,433.56l-12.57,7.24V426.31Z" transform="translate(-0.42 -130.28)"/><path class="cls-14" d="M540.9,269.22,528.37,262l12.53-7.24Z" transform="translate(-0.42 -130.28)"/><path class="cls-22" d="M421.52,433.55,409,440.79V426.32Z" transform="translate(-0.42 -130.28)"/><path class="cls-21" d="M446.15,319.2l12.33,7.13-12.33,7.12Z" transform="translate(-0.42 -130.28)"/><path class="cls-17" d="M726.54,247.62l-12.23-7.07,12.23-7.09Z" transform="translate(-0.42 -130.28)"/><path class="cls-21" d="M409,354.93v-14.3l12.39,7.14Z" transform="translate(-0.42 -130.28)"/><path class="cls-21" d="M540.77,440.63l-12.26-7.06,12.26-7.12Z" transform="translate(-0.42 -130.28)"/><path class="cls-31" d="M120.1,240.54l12.15-7v14Z" transform="translate(-0.42 -130.28)"/><path class="cls-23" d="M429.4,319.22v14.21l-12.32-7.1Z" transform="translate(-0.42 -130.28)"/><path class="cls-20" d="M751.6,219.1l12.06-7v13.91Z" transform="translate(-0.42 -130.28)"/><path class="cls-23" d="M458.21,412.1l-11.84,6.83V405.29Z" transform="translate(-0.42 -130.28)"/><path class="cls-32" d="M503.51,247.4l-11.87-6.86,11.87-6.84Z" transform="translate(-0.42 -130.28)"/><path class="cls-8" d="M334.87,469.59l11.86,6.86-11.86,6.85Z" transform="translate(-0.42 -130.28)"/><path class="cls-8" d="M231.75,433.56l11.72-6.77v13.52Z" transform="translate(-0.42 -130.28)"/><path class="cls-21" d="M491.66,412.1l11.83-6.82v13.66Z" transform="translate(-0.42 -130.28)"/><path class="cls-33" d="M409.27,182.82v-13.2l11.42,6.58Z" transform="translate(-0.42 -130.28)"/><path class="cls-21" d="M297.77,204.47V190.86l11.79,6.79Z" transform="translate(-0.42 -130.28)"/><path class="cls-1" d="M94.88,483.18l-11.67-6.73,11.67-6.74Z" transform="translate(-0.42 -130.28)"/><path class="cls-12" d="M640.43,240.55,652,233.88v13.31Z" transform="translate(-0.42 -130.28)"/><path class="cls-8" d="M94.85,255.37v13.24L83.36,262Z" transform="translate(-0.42 -130.28)"/><path class="cls-8" d="M309.3,455l-11.36,6.57V448.45Z" transform="translate(-0.42 -130.28)"/><path class="cls-14" d="M457.88,197.65l-11.37,6.58V191.09Z" transform="translate(-0.42 -130.28)"/><path class="cls-12" d="M680.76,240.53l-11.33,6.55V234Z" transform="translate(-0.42 -130.28)"/><path class="cls-8" d="M260.77,427l11.35,6.55-11.35,6.54Z" transform="translate(-0.42 -130.28)"/><path class="cls-14" d="M726.26,448.48v13L715,455Z" transform="translate(-0.42 -130.28)"/><path class="cls-10" d="M595.17,247V234.09l11.19,6.45Z" transform="translate(-0.42 -130.28)"/><path class="cls-27" d="M494.77,219.1l-11.06,6.38V212.73Z" transform="translate(-0.42 -130.28)"/><path class="cls-11" d="M112.3,470.07l11,6.38-11,6.37Z" transform="translate(-0.42 -130.28)"/><path class="cls-15" d="M380.71,476.45l11.05-6.4v12.78Z" transform="translate(-0.42 -130.28)"/><path class="cls-30" d="M306.52,176.21l11-6.37v12.71Z" transform="translate(-0.42 -130.28)"/><path class="cls-23" d="M260.83,225.47V212.74l11,6.35Z" transform="translate(-0.42 -130.28)"/><path class="cls-10" d="M566.51,240.53l11-6.36v12.76Z" transform="translate(-0.42 -130.28)"/><path class="cls-25" d="M186.52,212.63l11.19,6.47-11.19,6.46Z" transform="translate(-0.42 -130.28)"/><path class="cls-13" d="M306.61,476.45l10.87-6.27v12.53Z" transform="translate(-0.42 -130.28)"/><path class="cls-34" d="M243.27,212.72v12.74l-11.06-6.35Z" transform="translate(-0.42 -130.28)"/><path class="cls-21" d="M566.69,455l10.78-6.21v12.43Z" transform="translate(-0.42 -130.28)"/><path class="cls-32" d="M531.89,240.53,521,246.84V234.27Z" transform="translate(-0.42 -130.28)"/><path class="cls-9" d="M38.07,298.71l10.72,6.17-10.72,6.18Z" transform="translate(-0.42 -130.28)"/><path class="cls-22" d="M418.2,455l10.71-6.17v12.33Z" transform="translate(-0.42 -130.28)"/><path class="cls-28" d="M465.91,427.56v12l-10.37-6Z" transform="translate(-0.42 -130.28)"/><path class="cls-8" d="M280.22,449v12l-10.39-6Z" transform="translate(-0.42 -130.28)"/><path class="cls-23" d="M484,439.43V427.67l10.19,5.89Z" transform="translate(-0.42 -130.28)"/><path class="cls-23" d="M280.21,191.76v11.76L270,197.67Z" transform="translate(-0.42 -130.28)"/><path class="cls-15" d="M158.48,219.1l10.16-5.86v11.69Z" transform="translate(-0.42 -130.28)"/><path class="cls-35" d="M595.57,449.19c3.39,1.94,6.54,3.76,10.08,5.8l-10.08,5.85Z" transform="translate(-0.42 -130.28)"/><path class="cls-7" d="M195.87,455l9.77-5.64v11.27Z" transform="translate(-0.42 -130.28)"/><path class="cls-22" d="M409.9,470.87l9.65,5.57L409.9,482Z" transform="translate(-0.42 -130.28)"/><path class="cls-9" d="M224.18,449.46l9.58,5.52-9.58,5.57Z" transform="translate(-0.42 -130.28)"/><path class="cls-7" d="M10.89,326.32l-9.53,5.5V320.87Z" transform="translate(-0.42 -130.28)"/><path class="cls-31" d="M354.05,492.62v10.54l-9.12-5.26Z" transform="translate(-0.42 -130.28)"/><path class="cls-32" d="M781.48,471.08l9.31,5.37-9.31,5.37Z" transform="translate(-0.42 -130.28)"/><path class="cls-14" d="M354,160,345,154.76l9.08-5.24Z" transform="translate(-0.42 -130.28)"/><path class="cls-36" d="M1.36,460.39V449.66L10.68,455Z" transform="translate(-0.42 -130.28)"/><path class="cls-7" d="M38.69,471.27l9,5.17-9,5.19Z" transform="translate(-0.42 -130.28)"/><path class="cls-37" d="M790.6,176.2l-9,5.17V171.08Z" transform="translate(-0.42 -130.28)"/><path class="cls-33" d="M382,154.76,372.93,160V149.52Z" transform="translate(-0.42 -130.28)"/><path class="cls-31" d="M373,492.71l9,5.18-9,5.2Z" transform="translate(-0.42 -130.28)"/><path class="cls-38" d="M56.9,278.26V288.6l-9-5.17Z" transform="translate(-0.42 -130.28)"/><path class="cls-30" d="M530.47,455l-8.88,5.14V449.89Z" transform="translate(-0.42 -130.28)"/><path class="cls-22" d="M447.27,460.19V449.82l9,5.18C453.16,456.77,450.39,458.38,447.27,460.19Z" transform="translate(-0.42 -130.28)"/><path class="cls-9" d="M168.2,471.4v10.08l-8.73-5Z" transform="translate(-0.42 -130.28)"/><path class="cls-21" d="M224.51,202.65v-10l8.63,5Z" transform="translate(-0.42 -130.28)"/><path class="cls-32" d="M531,219.1l8.59-4.94V224Z" transform="translate(-0.42 -130.28)"/><path class="cls-31" d="M270.16,476.45l-8.44,4.86v-9.72Z" transform="translate(-0.42 -130.28)"/><path class="cls-27" d="M762.51,471.48v9.93l-8.63-5Z" transform="translate(-0.42 -130.28)"/><path class="cls-16" d="M502.29,459.7l-8.13-4.7,8.13-4.7Z" transform="translate(-0.42 -130.28)"/><path class="cls-24" d="M502.29,193v9.27l-8-4.61Z" transform="translate(-0.42 -130.28)"/><path class="cls-24" d="M567.24,219.1l-8.34,4.79v-9.58Z" transform="translate(-0.42 -130.28)"/><path class="cls-25" d="M205.19,193v9.39l-8.12-4.69Z" transform="translate(-0.42 -130.28)"/><path class="cls-18" d="M650.89,450.32v9.34L642.81,455Z" transform="translate(-0.42 -130.28)"/><path class="cls-39" d="M234.36,476.46l7.91-4.58V481Z" transform="translate(-0.42 -130.28)"/><path class="cls-13" d="M195.36,476.44l-7.56,4.36v-8.7Z" transform="translate(-0.42 -130.28)"/><path class="cls-13" d="M299.16,493.42l7.8,4.47-7.8,4.5Z" transform="translate(-0.42 -130.28)"/><path class="cls-40" d="M613.66,223.51,606,219.1l7.67-4.43Z" transform="translate(-0.42 -130.28)"/><path class="cls-18" d="M670.48,459.51v-9L678.3,455Z" transform="translate(-0.42 -130.28)"/><path class="cls-10" d="M465,171.92v8.56l-7.44-4.27Z" transform="translate(-0.42 -130.28)"/><path class="cls-37" d="M707.91,215l7.15,4.13-7.15,4.15Z" transform="translate(-0.42 -130.28)"/><path class="cls-16" d="M306.52,154.75l-7.3,4.24v-8.44Z" transform="translate(-0.42 -130.28)"/><path class="cls-17" d="M633.6,223.24V215l7.16,4.11Z" transform="translate(-0.42 -130.28)"/><path class="cls-23" d="M566.62,476.44l-7.34,4.23v-8.45Z" transform="translate(-0.42 -130.28)"/><path class="cls-35" d="M262.1,180.34v-8.27l7.18,4.13Z" transform="translate(-0.42 -130.28)"/><path class="cls-9" d="M19.14,300.75V309L12,304.9Z" transform="translate(-0.42 -130.28)"/><path class="cls-41" d="M745.12,201.64V193.7l6.89,3.94Z" transform="translate(-0.42 -130.28)"/><path class="cls-12" d="M522.25,201.64v-8c2.33,1.35,4.43,2.57,6.87,4Z" transform="translate(-0.42 -130.28)"/><path class="cls-39" d="M279,493.92v7.91l-6.88-3.93Z" transform="translate(-0.42 -130.28)"/><path class="cls-42" d="M792.43,154.75,799,151v7.52Z" transform="translate(-0.42 -130.28)"/><path class="cls-24" d="M427.46,158.5,421,154.77l6.45-3.75Z" transform="translate(-0.42 -130.28)"/><path class="cls-43" d="M680.9,219.1l6.6-3.81v7.61Z" transform="translate(-0.42 -130.28)"/><path class="cls-28" d="M427.57,494.13v7.53L421,497.89Z" transform="translate(-0.42 -130.28)"/><path class="cls-8" d="M12.54,476.45l6.25-3.61V480Z" transform="translate(-0.42 -130.28)"/><path class="cls-18" d="M241.77,179.89l-6.41-3.68,6.41-3.68Z" transform="translate(-0.42 -130.28)"/><path class="cls-21" d="M464.52,480l-6.25-3.58,6.25-3.6Z" transform="translate(-0.42 -130.28)"/><path class="cls-32" d="M606.92,476.45l6.15-3.55V480Z" transform="translate(-0.42 -130.28)"/><path class="cls-30" d="M538.88,472.74v7.4l-6.47-3.69Z" transform="translate(-0.42 -130.28)"/><path class="cls-21" d="M113.86,222.7v-7.18l6.24,3.57Z" transform="translate(-0.42 -130.28)"/><path class="cls-36" d="M76.77,494.33,83,497.88l-6.18,3.59Z" transform="translate(-0.42 -130.28)"/><path class="cls-21" d="M336.83,522.73v-6.81l5.93,3.42Z" transform="translate(-0.42 -130.28)"/><path class="cls-26" d="M485.58,172.89l5.76,3.31-5.76,3.35Z" transform="translate(-0.42 -130.28)"/><path class="cls-38" d="M130.21,494.49v6.8l-5.9-3.39Z" transform="translate(-0.42 -130.28)"/><path class="cls-23" d="M315.76,516.08v6.49l-5.62-3.21Z" transform="translate(-0.42 -130.28)"/><path class="cls-25" d="M157,197.65,151.24,201v-6.64Z" transform="translate(-0.42 -130.28)"/><path class="cls-15" d="M225.46,501.12v-6.41l5.56,3.16Z" transform="translate(-0.42 -130.28)"/><path class="cls-43" d="M575.76,194.45v6.36l-5.54-3.15Z" transform="translate(-0.42 -130.28)"/><path class="cls-44" d="M761.54,173v6.4L756,176.22Z" transform="translate(-0.42 -130.28)"/><path class="cls-34" d="M384.53,519.34l5.49-3.15v6.3Z" transform="translate(-0.42 -130.28)"/><path class="cls-35" d="M278.55,158,273,154.77l5.51-3.21Z" transform="translate(-0.42 -130.28)"/><path class="cls-14" d="M713.93,476.44l-5.42,3.12v-6.22Z" transform="translate(-0.42 -130.28)"/><path class="cls-7" d="M151.29,494.81l5.37,3.07L151.29,501Z" transform="translate(-0.42 -130.28)"/><path class="cls-12" d="M570.47,497.9l5.12-3v5.92Z" transform="translate(-0.42 -130.28)"/><path class="cls-14" d="M342.34,133.32l-5.29,3v-6.08Z" transform="translate(-0.42 -130.28)"/><path class="cls-29" d="M491.11,476.46l-5.48,3.11V473.3Z" transform="translate(-0.42 -130.28)"/><path class="cls-45" d="M55.63,494.88v6l-5.19-3Z" transform="translate(-0.42 -130.28)"/><path class="cls-15" d="M77.17,237.59l5.14,2.91-5.14,3.06Z" transform="translate(-0.42 -130.28)"/><path class="cls-14" d="M639.44,476.46l-5.08,2.89v-5.82Z" transform="translate(-0.42 -130.28)"/><path class="cls-12" d="M453.51,154.75l-4.85,2.81V152Z" transform="translate(-0.42 -130.28)"/><path class="cls-26" d="M602.1,197.66l-4.79,2.77v-5.54Z" transform="translate(-0.42 -130.28)"/><path class="cls-17" d="M310.69,133.32l4.75-2.73V136Z" transform="translate(-0.42 -130.28)"/><path class="cls-29" d="M448.58,500.75v-5.64l4.91,2.74Z" transform="translate(-0.42 -130.28)"/><path class="cls-8" d="M199.31,497.91l4.63-2.72v5.33Z" transform="translate(-0.42 -130.28)"/><path class="cls-24" d="M793.56,497.89l4.67-2.68v5.3Z" transform="translate(-0.42 -130.28)"/><path class="cls-24" d="M389.74,130.61V136L385,133.32Z" transform="translate(-0.42 -130.28)"/><path class="cls-42" d="M724.07,195v5.32l-4.63-2.65Z" transform="translate(-0.42 -130.28)"/><path class="cls-41" d="M682.33,476.47c1.61-.94,2.89-1.69,4.44-2.58V479Z" transform="translate(-0.42 -130.28)"/><path class="cls-28" d="M188.75,173.57l4.58,2.63-4.58,2.66Z" transform="translate(-0.42 -130.28)"/><path class="cls-34" d="M416.12,519.34,411.59,522v-5.2Z" transform="translate(-0.42 -130.28)"/><path class="cls-24" d="M129.6,195.12v5l-4.28-2.41Z" transform="translate(-0.42 -130.28)"/><path class="cls-35" d="M601.81,497.87l-4.48,2.64v-5.16Z" transform="translate(-0.42 -130.28)"/><path class="cls-18" d="M263.13,516.9l4.18,2.45-4.18,2.42Z" transform="translate(-0.42 -130.28)"/><path class="cls-16" d="M523.15,500.32v-4.77l4.07,2.28Z" transform="translate(-0.42 -130.28)"/><path class="cls-41" d="M750,497.9l-3.93,2.24v-4.46Z" transform="translate(-0.42 -130.28)"/><path class="cls-34" d="M88.44,219.13l3.92-2.27v4.44Z" transform="translate(-0.42 -130.28)"/><path class="cls-30" d="M500.88,495.7v4.39l-3.8-2.22Z" transform="translate(-0.42 -130.28)"/><path class="cls-44" d="M560.4,521.54v-4.28l3.8,2.06Z" transform="translate(-0.42 -130.28)"/><path class="cls-12" d="M240.79,521.44l-3.58-2.09,3.58-2.11Z" transform="translate(-0.42 -130.28)"/><path class="cls-43" d="M538,178.4l-3.74-2.2,3.74-2.13Z" transform="translate(-0.42 -130.28)"/><path class="cls-31" d="M40.42,264.19v-4.36L44.24,262Z" transform="translate(-0.42 -130.28)"/><path class="cls-46" d="M645.78,197.66l3.52-2v4Z" transform="translate(-0.42 -130.28)"/><path class="cls-47" d="M415.6,133.33l-3.7,2.08v-4.14Z" transform="translate(-0.42 -130.28)"/><path class="cls-23" d="M162.87,176.22l3.69-2.1v4.18Z" transform="translate(-0.42 -130.28)"/><path class="cls-46" d="M671.88,195.67l3.38,2-3.21,1.89C672,198.25,672,197.24,671.88,195.67Z" transform="translate(-0.42 -130.28)"/><path class="cls-27" d="M226.21,156.74v-3.93l3.4,1.93Z" transform="translate(-0.42 -130.28)"/><path class="cls-43" d="M537.92,521.24l-3.28-1.87,3.28-1.88Z" transform="translate(-0.42 -130.28)"/><path class="cls-40" d="M352.17,538.89v3.74l-3.3-1.83Z" transform="translate(-0.42 -130.28)"/><path class="cls-48" d="M720.37,497.9l3.11-1.76v3.47Z" transform="translate(-0.42 -130.28)"/><path class="cls-19" d="M560.61,174.35l3.2,1.84-3.2,1.84Z" transform="translate(-0.42 -130.28)"/><path class="cls-23" d="M374.87,542.61v-3.69l3.18,1.86Z" transform="translate(-0.42 -130.28)"/><path class="cls-40" d="M3.58,281.75l2.91,1.66-2.91,1.74Z" transform="translate(-0.42 -130.28)"/><path class="cls-21" d="M51.93,240.56l2.9-1.66v3.23Z" transform="translate(-0.42 -130.28)"/><path class="cls-18" d="M460.47,519.33l3-1.68V521Z" transform="translate(-0.42 -130.28)"/><path class="cls-28" d="M300.71,539.09l2.92,1.67-2.92,1.7Z" transform="translate(-0.42 -130.28)"/><path class="cls-49" d="M611.94,520.9l-2.65-1.54,2.65-1.54Z" transform="translate(-0.42 -130.28)"/><path class="cls-12" d="M649.17,499.53c-1-.6-1.71-1-2.74-1.62l2.74-1.61Z" transform="translate(-0.42 -130.28)"/><path class="cls-50" d="M200.58,154.78l2.76-1.54v3Z" transform="translate(-0.42 -130.28)"/><path class="cls-51" d="M500.55,153.18v3.13l-2.68-1.55Z" transform="translate(-0.42 -130.28)"/><path class="cls-47" d="M117.65,519.35l-2.52,1.44v-2.86Z" transform="translate(-0.42 -130.28)"/><path class="cls-33" d="M486.5,517.81l2.65,1.54-2.65,1.49Z" transform="translate(-0.42 -130.28)"/><path class="cls-47" d="M266.26,133.32l-2.64,1.51v-3Z" transform="translate(-0.42 -130.28)"/><path class="cls-29" d="M91.87,517.92v2.85l-2.54-1.43Z" transform="translate(-0.42 -130.28)"/><path class="cls-52" d="M189.36,520.87v-2.94l2.5,1.33Z" transform="translate(-0.42 -130.28)"/><path class="cls-26" d="M275,540.73l2.63-1.35v2.87Z" transform="translate(-0.42 -130.28)"/></svg>