<?xml version="1.0" ?><svg data-name="1-Browser-Interface-photo" height="48" id="_1-Browser-Interface-photo" viewBox="0 0 48 48" width="48" xmlns="http://www.w3.org/2000/svg"><defs><style>.cls-1{fill:#a4b0c0;}.cls-2{fill:#f1f2f2;}.cls-3{fill:#49aaee;}.cls-4{fill:#d0d7df;}.cls-5{fill:#768ba0;}.cls-6{fill:#474c54;}</style></defs><title/><path class="cls-1" d="M34,45v1a1,1,0,0,1-1,1H15a1,1,0,0,1-1-1V45l3-2V37H31v6Z"/><path class="cls-2" d="M47,28v5a4,4,0,0,1-4,4H5a4,4,0,0,1-4-4V28Z"/><path class="cls-1" d="M47,28H1V5A4,4,0,0,1,5,1H43a4,4,0,0,1,4,4Z"/><path class="cls-3" d="M42,5H6A1,1,0,0,0,5,6V28H43V6A1,1,0,0,0,42,5Z"/><circle class="cls-4" cx="36" cy="13" r="3"/><path class="cls-5" d="M47,12v2a1,1,0,0,1-1,1H43.74a8.285,8.285,0,0,1-.85,2.06l1.6,1.6a1,1,0,0,1,0,1.41l-1.42,1.42a1,1,0,0,1-1.41,0l-1.6-1.6a8.285,8.285,0,0,1-2.06.85V23a1,1,0,0,1-1,1H35a1,1,0,0,1-1-1V20.74a8.285,8.285,0,0,1-2.06-.85l-1.6,1.6a1,1,0,0,1-1.41,0l-1.42-1.42a1,1,0,0,1,0-1.41l1.6-1.6A8.285,8.285,0,0,1,28.26,15H26a1,1,0,0,1-1-1V12a1,1,0,0,1,1-1h2.26a8.285,8.285,0,0,1,.85-2.06l-1.6-1.6a1,1,0,0,1,0-1.41l1.42-1.42a1,1,0,0,1,1.41,0l1.6,1.6A8.285,8.285,0,0,1,34,5.26V3a1,1,0,0,1,1-1h2a1,1,0,0,1,1,1V5.26a8.285,8.285,0,0,1,2.06.85l1.6-1.6a1,1,0,0,1,1.41,0l1.42,1.42a1,1,0,0,1,0,1.41l-1.6,1.6A8.285,8.285,0,0,1,43.74,11H46A1,1,0,0,1,47,12Zm-8,1a3,3,0,1,0-3,3A3,3,0,0,0,39,13Z"/><path class="cls-6" d="M47,27H6a1,1,0,0,0,0,2H46v4a3,3,0,0,1-3,3H5a3,3,0,0,1-3-3V5A3,3,0,0,1,5,2H24a1,1,0,0,0,0-2H5A5.006,5.006,0,0,0,0,5V33a5.006,5.006,0,0,0,5,5H16v4.465l-2.555,1.7A1,1,0,0,0,13,45v1a2,2,0,0,0,2,2H33a2,2,0,0,0,2-2V45a1,1,0,0,0-.445-.832L32,42.465V41a1,1,0,0,0-2,0v2a1,1,0,0,0,.445.832L33,45.535V46H15v-.465l2.555-1.7A1,1,0,0,0,18,43V38H43a5.006,5.006,0,0,0,5-5V28A1,1,0,0,0,47,27Z"/><path class="cls-6" d="M46,10H44.478a9.418,9.418,0,0,0-.361-.872L45.2,8.047a2,2,0,0,0,0-2.824L43.777,3.8a2,2,0,0,0-2.824,0l-1.08,1.081A9.286,9.286,0,0,0,39,4.522V3a2,2,0,0,0-2-2H35a2,2,0,0,0-2,2V4.522a9.286,9.286,0,0,0-.873.362L31.047,3.8a2,2,0,0,0-2.824,0L26.8,5.224a2,2,0,0,0,0,2.823l1.08,1.081a9.418,9.418,0,0,0-.361.872H26a2,2,0,0,0-2,2v2a2,2,0,0,0,2,2h1.522a9.418,9.418,0,0,0,.361.872L26.8,17.953a2,2,0,0,0,0,2.824l1.42,1.42a2,2,0,0,0,2.824,0l1.08-1.081a9.286,9.286,0,0,0,.873.362V23a2,2,0,0,0,2,2h2a2,2,0,0,0,2-2V21.478a9.286,9.286,0,0,0,.873-.362l1.08,1.081a2,2,0,0,0,2.824,0L45.2,20.776a2,2,0,0,0,0-2.823l-1.08-1.081A9.418,9.418,0,0,0,44.478,16H46a2,2,0,0,0,2-2V12A2,2,0,0,0,46,10Zm0,4H43.74a1,1,0,0,0-.968.748,7.3,7.3,0,0,1-.748,1.812,1,1,0,0,0,.159,1.207l1.6,1.6-1.416,1.42-1.6-1.6a1,1,0,0,0-1.207-.159,7.349,7.349,0,0,1-1.812.748A1,1,0,0,0,37,20.74V23H35V20.74a1,1,0,0,0-.748-.968,7.349,7.349,0,0,1-1.812-.748,1,1,0,0,0-1.207.159l-1.6,1.6-1.42-1.416,1.6-1.6a1,1,0,0,0,.159-1.207,7.3,7.3,0,0,1-.748-1.812A1,1,0,0,0,28.26,14H26V12h2.26a1,1,0,0,0,.968-.748,7.3,7.3,0,0,1,.748-1.812,1,1,0,0,0-.159-1.207l-1.6-1.6,1.416-1.42,1.6,1.6a1,1,0,0,0,1.207.159,7.349,7.349,0,0,1,1.812-.748A1,1,0,0,0,35,5.26V3h2V5.26a1,1,0,0,0,.748.968,7.349,7.349,0,0,1,1.812.748,1,1,0,0,0,1.207-.159l1.6-1.6,1.42,1.416-1.6,1.6a1,1,0,0,0-.159,1.207,7.3,7.3,0,0,1,.748,1.812A1,1,0,0,0,43.74,12H46Z"/><path class="cls-6" d="M36,9a4,4,0,1,0,4,4A4,4,0,0,0,36,9Zm0,6a2,2,0,1,1,2-2A2,2,0,0,1,36,15Z"/><path class="cls-6" d="M10.707,10.293a1,1,0,0,0-1.414,0l-4,4a1,1,0,0,0,0,1.414l4,4a1,1,0,0,0,1.414-1.414L7.414,15l3.293-3.293A1,1,0,0,0,10.707,10.293Z"/><path class="cls-6" d="M15.293,19.707a1,1,0,0,0,1.414,0l4-4a1,1,0,0,0,0-1.414l-4-4a1,1,0,0,0-1.414,1.414L18.586,15l-3.293,3.293A1,1,0,0,0,15.293,19.707Z"/></svg>