<?xml version="1.0" ?><svg style="enable-background:new 0 0 64 64;" version="1.1" viewBox="0 0 64 64" xml:space="preserve" xmlns="http://www.w3.org/2000/svg" xmlns:xlink="http://www.w3.org/1999/xlink"><style type="text/css">
	.st0{fill:#4267B2;}
	.st1{fill:url(#SVGID_1_);}
	.st2{fill:#FFFFFF;}
	.st3{fill:#C2191E;}
	.st4{fill:#1DA1F3;}
	.st5{fill:#FEFE00;}
	.st6{fill:#25D366;stroke:#FFFFFF;stroke-width:5;stroke-miterlimit:10;}
	.st7{fill:#CB2027;}
	.st8{fill:#0077B5;}
	.st9{fill:url(#SVGID_2_);}
	.st10{fill:url(#SVGID_3_);}
	.st11{fill:#FF004F;}
	.st12{fill:#00F7EF;}
	.st13{fill:#5181B8;}
	.st14{fill:#395976;}
	.st15{fill:#F58220;}
	.st16{fill:#E6162D;}
	.st17{fill:#FF9933;}
</style><g id="guidlines"/><g id="FB"/><g id="ig"/><g id="yt"/><g id="twitter"/><g id="snapchat"/><g id="WA"><g><path class="st6" d="M5,59l12-3.3c4.3,2.7,9.5,4.3,15,4.3c15.5,0,28-12.5,28-28S47.5,4,32,4S4,16.5,4,32c0,5.5,1.6,10.7,4.3,15    L5,59z"/><path class="st2" d="M45.9,39.6c-1.9,4-5.4,4.5-5.4,4.5c-3,0.6-6.8-0.7-9.8-2.1c-4.3-2-8-5.2-10.5-9.3c-1.1-1.9-2.1-4.1-2.2-6.2    c0,0-0.4-3.5,3-6.3c0.3-0.2,0.6-0.3,1-0.3l1.5,0c0.6,0,1.2,0.4,1.4,1l2.3,5.6c0.2,0.6,0.1,1.2-0.3,1.7l-1.5,1.6    c-0.5,0.5-0.5,1.2-0.2,1.8c0.1,0.2,0.3,0.5,0.6,0.8c1.8,2.4,4.2,4.2,6.9,5.4c0.4,0.2,0.7,0.3,1,0.4c0.7,0.2,1.3-0.1,1.7-0.6    l1.2-1.8c0.3-0.5,0.9-0.8,1.5-0.7l6,0.9c0.6,0.1,1.1,0.6,1.3,1.2l0.4,1.5C46,38.9,46,39.3,45.9,39.6z"/></g></g><g id="Pinterrest"/><g id="Layer_9"/><g id="Layer_10"/><g id="Layer_11"/><g id="Layer_12"/><g id="Layer_13"/><g id="Layer_14"/><g id="Layer_15"/><g id="Layer_16"/><g id="Layer_17"/></svg>